<svg width="38" height="51" viewBox="0 0 38 51" fill="none" xmlns="http://www.w3.org/2000/svg">
<ellipse cx="6.37582" cy="6.29205" rx="6.37582" ry="6.29205" fill="white"/>
<ellipse cx="6.37582" cy="25.0845" rx="6.37582" ry="6.29205" fill="white"/>
<ellipse cx="6.37582" cy="43.8765" rx="6.37582" ry="6.29205" fill="white"/>
<ellipse cx="31.6241" cy="6.29205" rx="6.37582" ry="6.29205" fill="white"/>
<ellipse cx="31.6241" cy="25.0845" rx="6.37582" ry="6.29205" fill="white"/>
<rect x="11.3915" y="5.70459" width="15.302" height="1.17452" fill="white"/>
<rect x="11.3915" y="24.4976" width="15.302" height="1.17452" fill="white"/>
<rect width="25.7337" height="1.18414" transform="matrix(0.626159 -0.779695 0.787692 0.616069 9.94635 45.1484)" fill="white"/>
<rect width="38.7827" height="1.18818" transform="matrix(0.360713 -0.932677 0.935819 0.352481 12.0984 42.4639)" fill="white"/>
<rect width="25.3807" height="1.18456" transform="matrix(0.604549 -0.796568 0.804176 0.594392 10.8813 25.8379)" fill="white"/>
<rect width="25.3807" height="1.18456" transform="matrix(-0.604549 -0.796568 -0.804176 0.594392 27.1777 25.8379)" fill="white"/>
</svg>
